<svg xmlns="http://www.w3.org/2000/svg" width="607" height="607" xmlns:v="https://vecta.io/nano"><path d="M289.914-.203l3.045-.021 9.666-.026 3.334-.002C321.845-.237 337.341.081 353 3l2.986.536C423.073 15.819 487.437 49.64 532 102l2.527 2.867c43.72 49.987 72.362 118.262 72.676 185.047l.021 3.045.026 9.666.002 3.334c-.015 15.885-.333 31.381-3.252 47.041l-.536 2.986C591.181 423.073 557.36 487.437 505 532l-2.867 2.527c-49.987 43.72-118.262 72.362-185.047 72.676l-3.045.021-9.666.026-3.334.002c-15.885-.015-31.381-.333-47.041-3.252l-2.986-.536C183.927 591.181 119.563 557.36 75 505l-2.527-2.867C28.752 452.146.111 383.871-.203 317.086l-.021-3.045-.026-9.666-.002-3.334C-.237 285.155.081 269.659 3 254l.536-2.986C15.819 183.927 49.64 119.563 102 75l2.867-2.527C154.854 28.752 223.129.111 289.914-.203z" fill="#f96055"/><path d="M289.914-.203l3.045-.021 9.666-.026 3.334-.002C321.845-.237 337.341.081 353 3l2.986.536C423.073 15.819 487.437 49.64 532 102l2.527 2.867c43.72 49.987 72.362 118.262 72.676 185.047l.021 3.045.026 9.666.002 3.334c-.015 15.885-.333 31.381-3.252 47.041l-.536 2.986C591.181 423.073 557.36 487.437 505 532l-2.867 2.527c-49.987 43.72-118.262 72.362-185.047 72.676l-3.045.021-9.666.026-3.334.002c-15.885-.015-31.381-.333-47.041-3.252l-2.986-.536C183.927 591.181 119.563 557.36 75 505l-2.527-2.867C28.752 452.146.111 383.871-.203 317.086l-.021-3.045-.026-9.666-.002-3.334C-.237 285.155.081 269.659 3 254l.536-2.986C15.819 183.927 49.64 119.563 102 75l2.867-2.527C154.854 28.752 223.129.111 289.914-.203zm-25.67 50.457l-2.814 2.797-7.639 7.649-8.274 8.264-16.167 16.175-18.838 18.848-33.605 33.638-32.598 32.618-35.539 35.54-3.788 3.792-1.882 1.885-13.129 13.128-15.987 16.008-8.155 8.163-8.836 8.859-2.609 2.591c-6.635 6.706-11.349 12.717-11.76 22.416.102 6.894 2.664 12.231 7.137 17.418 3.517 3.345 6.976 5.423 11.508 7.152l2.695 1.04L66 309l.06 2.648c.431 18.163.921 36.281 2.94 54.352l.272 2.438c5.488 46.138 26.046 91.569 57.826 125.484C129 496 129 496 131.008 498.555c1.815 2.228 3.606 3.985 5.805 5.82 2.631 2.202 5.065 4.506 7.457 6.961 3.628 3.652 7.501 6.815 11.605 9.914l2.246 1.697c50.217 37.514 112.926 56.158 175.512 47.412C384.595 562.621 428.83 539.3 466 504l2.508-2.379c5.65-5.502 10.614-11.432 15.492-17.621l2.438-3.027C526.86 430.245 535.273 370.813 537 308l2.288-.8 3.001-1.067 2.975-1.05c6.544-2.589 9.961-6.982 12.814-13.208 2.716-8.471 1.535-15.446-2.433-23.173-2.904-4.769-6.757-8.497-10.715-12.399l-2.774-2.795-7.598-7.588-8.205-8.219-16.069-16.061-13.071-13.057-1.881-1.882-3.783-3.786-33.453-33.415-32.411-32.391-35.322-35.325-3.774-3.769-1.875-1.873-13.035-13.039-15.917-15.892-8.109-8.102-8.822-8.793-2.545-2.57C326.031 37.633 315.584 31.067 301 30.563c-15.011.374-26.58 9.401-36.755 19.692z" fill="#f7f5f3"/><path d="M305 91c2.62 1.678 4.628 3.834 6.746 6.098l1.863 1.9 5.828 6.065 5.804 5.978 3.731 3.847c3.658 3.769 7.391 7.358 11.411 10.745 2.495 2.111 4.797 4.378 7.117 6.68l2.594 2.551C352 137 352 137 352 139l1.66.675c3.055 1.729 5.332 4.044 7.781 6.518l1.627 1.62 5.38 5.391 3.864 3.858 10.481 10.494 10.964 10.97 18.405 18.428 21.295 21.315 20.474 20.487 8.72 8.726 10.258 10.275 3.771 3.774 5.134 5.146 1.519 1.514c4.638 4.671 5.919 7.158 5.927 13.762l.011 2.135-.004 7.011.006 4.91-.011 10.325.007 13.087v10.167l.005 4.814c.11 47.919-15.418 93.831-48.151 129.287-1.951 2.124-3.821 4.295-5.684 6.496-3.516 4.01-7.331 7.419-11.437 10.813l-1.498 1.281c-33.969 29.011-76.901 44.207-121.439 44.094l-2.457-.002c-13.528-.042-26.448-1.019-39.606-4.373l-2.616-.666C231.794 514.865 209.457 504.057 189 489l-2.742-1.996c-20.173-15.617-48.625-42.876-53.727-69.445-.06-4.09.282-6.229 2.344-9.871 4.908-4.966 11.99-6.879 18.789-7.184l5.961.059 3.2.044c8.668.208 16.763 1.222 25.175 3.393l2.198.538c20.179 5.003 39.531 13.002 58.833 20.626C270.828 433.761 292.854 441.853 316 446l2.921.533c7.94 1.346 15.657 1.819 23.704 1.78l3.705-.017c41.186-.547 82.535-18.109 111.67-47.295 5.654-6.435 10.746-12.633 10.414-21.559-1.019-6.006-3.753-10.928-8.227-15.004-5.498-2.479-9.137-3.121-14.937-1.187-5.601 3.168-10.097 7.962-14.75 12.348-25.253 23.609-58.437 34.371-92.5 33.402 2.356-2.423 4.743-4.252 7.563-6.125 19.927-13.807 33.698-33.022 38.25-57 5.26-31.514-4.46-63.219-22.625-89.062-12.429-17.071-28.901-32.825-49.937-38.312-2.077-.348-2.077-.348-4.25-.5l-2.75-.242c-18.446-.817-33.895 9.335-47.055 21.227C238.822 256.086 225.492 279.486 220 304l-.621 2.57c-3.913 18.943-2.128 39.485 5.34 57.27 1.619 3.994 2.954 8.061 4.281 12.16l-1.706-.671c-10.97-4.297-21.831-8.534-33.294-11.329l-3.285-.902c-22.628-5.343-50.758-4.576-71.715 5.902h-2c-2.829-18.525-3.593-36.803-3.611-55.499l-.12-11.541-.051-9.026-.051-4.259c-.23-12.289-.23-12.289 4.256-17.411L121 268l2-3h2l.82-1.804c1.169-2.176 2.322-3.587 4.06-5.324l1.792-1.806 1.971-1.955 2.092-2.099 6.974-6.962 4.986-4.992 13.568-13.555 12.74-12.733 25.243-25.22 24.509-24.488 1.525-1.525 1.522-1.522 26.468-26.455 11.282-11.276 13.277-13.26 4.884-4.88 6.645-6.633 1.971-1.976c4.727-4.701 6.857-6.33 13.672-5.534z" fill="#f7f5f2"/><path d="M295 93l2 1-76 76c0-3 0-3 1.156-4.525l1.654-1.645 1.887-1.899 2.097-2.064 2.187-2.188 7.207-7.158 4.977-4.964 13.139-13.065 13.392-13.332L295 93z" fill="#f6fcfb"/><path d="M163 225c0 4.943-3.725 7.534-7 11l-2.551 2.711c-7.182 7.427-7.182 7.427-11.449 8.289 4.384-5.252 9.008-10.132 13.875-14.937l2.086-2.072L163 225z" fill="#f6e6e3"/><path d="M84 231c0 3 0 3-1 6l-2.437.938c-3.089 1.281-3.168 2.181-4.562 5.063l-4 1c3.805-4.56 7.75-8.851 12-13z" fill="#f94a3d"/><path d="M247 68l1 2-4 5h-2l-.75 1.938C240 79 240 79 237.922 79.629L236 80c3.509-4.184 7.081-8.196 11-12z" fill="#fa4a3e"/><path d="M176 212c0 4.168-2.239 6.142-5 9-1.631 1.377-3.287 2.727-5 4l-2-1 12-12z" fill="#f7e8e5"/><path d="M224 365c2.961 3.364 3.923 6.692 5 11l-4-2v-6l-3 1 2-4z" fill="#f7e8e7"/><path d="M185 203l1 2-6 7-3-1 8-8z" fill="#f6ecea"/><path d="M74 382c2.209 3.314 2.225 4.345 2.125 8.188l-.055 2.73L76 395c-2.475-2.475-2.387-3.639-2.687-7.062l-.262-2.723L73 383l1-1z" fill="#fb4f41"/><path d="M284 35l2 1c-4.297 4.004-4.297 4.004-6 5-2.203-.348-2.203-.348-4-1l3.875-2.562 2.18-1.441L284 35z" fill="#fa4f43"/><path d="M340 523v2c-6.625 1.25-6.625 1.25-10-1 3.473-1.158 6.361-1.069 10-1z" fill="#fa5449"/><path d="M118 362l5 5-6 2 1-7z" fill="#f6e9e7"/><path d="M264 51l3 1-6 5-2-1 5-5z" fill="#f94f42"/></svg>